<mxfile host="app.diagrams.net" agent="Mozilla/5.0 (Windows NT 10.0; Win64; x64) AppleWebKit/537.36 (KHTML, like Gecko) Chrome/131.0.0.0 Safari/537.36" version="26.0.5">
  <diagram name="Page-1" id="Qa73W8nw9gtAEAMgE2KS">
    <mxGraphModel dx="1434" dy="876" grid="0" gridSize="10" guides="1" tooltips="1" connect="1" arrows="1" fold="1" page="1" pageScale="1" pageWidth="850" pageHeight="1100" math="0" shadow="0">
      <root>
        <mxCell id="0" />
        <mxCell id="1" parent="0" />
        <mxCell id="iv6oOa5ACZCAxFHoa43c-1" value="" style="ellipse;whiteSpace=wrap;aspect=fixed;opacity=50;" vertex="1" parent="1">
          <mxGeometry x="200" y="320" width="320" height="320" as="geometry" />
        </mxCell>
        <mxCell id="iv6oOa5ACZCAxFHoa43c-2" value="" style="ellipse;whiteSpace=wrap;aspect=fixed;opacity=50;" vertex="1" parent="1">
          <mxGeometry x="400" y="320" width="320" height="320" as="geometry" />
        </mxCell>
        <mxCell id="iv6oOa5ACZCAxFHoa43c-3" value="" style="ellipse;whiteSpace=wrap;aspect=fixed;opacity=50;" vertex="1" parent="1">
          <mxGeometry x="300" y="160" width="320" height="320" as="geometry" />
        </mxCell>
        <mxCell id="iv6oOa5ACZCAxFHoa43c-7" value="Food" style="shape=image;verticalAlign=top;verticalLabelPosition=bottom;labelBackgroundColor=#ffffff;imageAspect=0;aspect=fixed;image=https://cdn1.iconfinder.com/data/icons/ionicons-outline-vol-2/512/nutrition-outline-128.png" vertex="1" parent="1">
          <mxGeometry x="304" y="451" width="54" height="54" as="geometry" />
        </mxCell>
        <mxCell id="iv6oOa5ACZCAxFHoa43c-9" value="Mind" style="shape=image;verticalAlign=top;verticalLabelPosition=bottom;labelBackgroundColor=#ffffff;imageAspect=0;aspect=fixed;image=https://cdn2.iconfinder.com/data/icons/boxicons-regular-vol-1/24/bx-brain-128.png" vertex="1" parent="1">
          <mxGeometry x="433" y="266" width="54" height="54" as="geometry" />
        </mxCell>
        <mxCell id="iv6oOa5ACZCAxFHoa43c-12" value="Body" style="shape=image;verticalAlign=top;verticalLabelPosition=bottom;labelBackgroundColor=#ffffff;imageAspect=0;aspect=fixed;image=https://cdn1.iconfinder.com/data/icons/dompicon-glyph-fitness-diet/256/meditation-yoga-retreat-fitness-diet-128.png" vertex="1" parent="1">
          <mxGeometry x="433" y="396" width="55" height="55" as="geometry" />
        </mxCell>
        <mxCell id="iv6oOa5ACZCAxFHoa43c-14" value="Energy" style="shape=image;verticalAlign=top;verticalLabelPosition=bottom;labelBackgroundColor=#ffffff;imageAspect=0;aspect=fixed;image=https://cdn1.iconfinder.com/data/icons/bootstrap-vol-3/16/lightning-charge-128.png" vertex="1" parent="1">
          <mxGeometry x="566" y="453" width="54" height="54" as="geometry" />
        </mxCell>
      </root>
    </mxGraphModel>
  </diagram>
</mxfile>
